<?xml version="1.0" encoding="utf-8"?>
<!-- Generator: Adobe Illustrator 23.0.3, SVG Export Plug-In . SVG Version: 6.00 Build 0)  -->
<svg version="1.1" xmlns="http://www.w3.org/2000/svg" xmlns:xlink="http://www.w3.org/1999/xlink" x="0px" y="0px"
	 viewBox="0 0 1600 1200" style="enable-background:new 0 0 1600 1200;" xml:space="preserve">
<style type="text/css">
	.st0{fill:#E8E8E8;}
	.st1{fill:none;stroke:#EC615B;stroke-width:3;stroke-miterlimit:10;}
	.st2{fill:none;stroke:#5222D0;stroke-width:3;stroke-miterlimit:10;}
	.st3{fill:#EC615B;}
	.st4{fill:#5222D0;}
	.st5{fill:#FFFFFF;stroke:#000000;stroke-width:3;stroke-miterlimit:10;}
	.st6{fill:#FFFFFF;}
	.st7{fill:#161616;}
</style>
<g id="background">
	<g>
		<g>
			<path class="st0" d="M473.9,1084.7c-12.2-12.4-22.7-26.2-31.3-41.3c-8.5-15-18.5-33.6-16.5-51.4c-0.5,0.5-1,1-1.5,1.5
				c0.4,0.2,0.8,0.3,1.2,0.5c1.1,1.6,3.7,0.1,2.6-1.5c-1-1.5-2-2.1-3.8-2c-0.9,0-1.4,0.7-1.5,1.5c-2,17.8,7.7,36.3,16.1,51.4
				c8.8,15.9,19.8,30.5,32.6,43.4C473.1,1088.2,475.2,1086.1,473.9,1084.7L473.9,1084.7z"/>
		</g>
	</g>
	<g>
		<g>
			<path class="st0" d="M441.4,1013.1c-16.3-24.2-28-51.9-32.8-80.8c-0.7-4.1-1.1-8.2-0.6-12.3c0.1-1.1,0.3-2.1,0.5-3.2
				c-0.1-1.6,0.6-2.2,2.2-1.7c2.9-0.2,4.1,2.9,5.7,5c4.3,5.7,8.4,11.6,12.4,17.6c8.2,12.5,15.4,25.6,21.8,39.1
				c0.8,1.7,3.4,0.2,2.6-1.5c-7.6-16.2-16.5-31.8-26.8-46.5c-2.7-3.9-5.5-7.8-8.4-11.6c-1.7-2.2-3.4-5.1-6.1-6.1
				c-5.3-1.9-6.4,4.9-6.9,8.6c-0.9,8.1,1.2,16.6,3,24.4c2,8.5,4.5,16.9,7.6,25.1c5.9,16,13.8,31.2,23.3,45.3
				C439.8,1016.3,442.4,1014.8,441.4,1013.1L441.4,1013.1z"/>
		</g>
	</g>
	<g>
		<g>
			<path class="st0" d="M494.5,1066c-20.3-30.2-40.8-63.2-41.4-100.7c-0.8,0.4-1.5,0.9-2.3,1.3c3.5,2.2,6.2,4.9,8.5,8.4
				c0.9,1.4,3.3,0.5,2.7-1.2c-4.4-12.7-8.5-25.6-12.2-38.6c-1.8-6.2-3.4-12.4-5-18.6c-1.5-6-4.9-14.6,0.1-19.8c-0.7,0-1.4,0-2.1,0
				c11.4,14.6,18.7,31.6,26,48.5c8,18.7,16.1,37.5,24.1,56.2c0.7,1.5,3.4,0.4,2.7-1.2c-1-1.7-0.7-3.4,0.9-5.2
				c-0.8-0.1-1.6-0.2-2.4-0.3c12.6,17,22.6,35.8,29.4,55.9c0.6,1.8,3.5,1,2.9-0.8c-7-20.3-16.9-39.4-29.7-56.6
				c-0.6-0.7-1.6-1.1-2.4-0.3c-2.2,2.3-2.9,5.1-1.7,8.1c0.9-0.4,1.8-0.8,2.7-1.2c-8.3-19.3-16.5-38.5-24.8-57.8
				c-7.1-16.6-14.6-33.1-25.8-47.5c-0.5-0.6-1.6-0.5-2.1,0c-3.4,3.6-3.8,8-3.2,12.7c1,7.1,3.3,14.3,5.2,21.2
				c4.2,15.5,9,30.8,14.3,46c0.9-0.4,1.8-0.8,2.7-1.2c-2.5-3.9-5.6-7-9.6-9.5c-1-0.6-2.3,0.2-2.3,1.3c0.6,38.1,21.1,71.6,41.8,102.2
				C493,1069.1,495.6,1067.6,494.5,1066L494.5,1066z"/>
		</g>
	</g>
	<g>
		<g>
			<path class="st0" d="M540,1051.5c-4-8-7.2-16.3-9.6-24.9c-1.1-4.1-2.1-8.2-2.8-12.4c-0.4-2.2-0.8-4.5-1-6.8
				c-0.2-1.2-0.3-2.4-0.4-3.6c-0.5-1.8,0.3-2,2.5-0.6c3.3,0.7,3.7,2.2,5.4,4.9c0.9,1.5,1.7,3,2.6,4.5c2.1,3.9,4,8,5.7,12.2
				c3.1,7.5,5.7,15.2,8.3,22.9c0.6,1.8,3.5,1,2.9-0.8c-3.5-10.5-7.1-21.1-12-31.1c-2.3-4.8-4.9-9.8-8.2-14.1
				c-1.7-2.3-4.2-4.5-7.3-3.5c-2.7,0.9-3.1,3.2-3,5.7c0.2,5.5,1.4,11.1,2.6,16.5c2.5,11.3,6.5,22.3,11.7,32.7
				C538.2,1054.8,540.8,1053.3,540,1051.5L540,1051.5z"/>
		</g>
	</g>
	<g>
		<g>
			<path class="st0" d="M561.2,1046.9c-10.6-30.3-14.1-62.7-15.1-94.7c-0.2-7.8-0.1-15.7,0.8-23.5c0.2-1.7,0-5.6,1.2-6.9
				c0.4-0.5,3.8-2,4.7-1.5c0.5,0.3,0.8,2,1,2.5c1.2,3.9,2,8.1,2.9,12.1c3.9,16.3,7.6,32.7,11.2,49.1c4.2,19,8.2,37.9,12,57
				c0.4,1.9,3.3,1.1,2.9-0.8c-7.8-39-16-78-25.7-116.6c-0.9-3.6-3.2-9.6-8.2-7.6c-5.2,2.1-4.9,11.1-5.3,15.5
				c-1.8,18.7,0.4,37.6,2.1,56.2c1.8,20.5,5.7,40.5,12.6,60C559,1049.5,561.9,1048.7,561.2,1046.9L561.2,1046.9z"/>
		</g>
	</g>
	<g>
		<g>
			<path class="st0" d="M1080.2,1117.2c-7.3-15.7-11.6-32.6-12.3-49.9c-0.4-8.5,0-17,1.3-25.4c0.5-3.4,0.7-8.8,2.4-11.8
				c2.3-4.1,3.9-1.2,5.1,1.3c1.3,2.6,2.5,5.3,3.6,8.1c0.7,1.8,3.6,1,2.9-0.8c-1.4-3.4-6.1-19.5-12.3-14.1c-3,2.6-3.2,8.7-3.9,12.2
				c-1,5.5-1.7,11-2,16.6c-1.3,22.4,3.1,44.9,12.6,65.2C1078.4,1120.4,1081,1118.9,1080.2,1117.2L1080.2,1117.2z"/>
		</g>
	</g>
	<g>
		<g>
			<path class="st0" d="M1088,1063.9c-1.2-19.1-0.7-38.2,1.6-57.2c2.1-17.4,5.2-35.3,15.2-50.1c-0.9,0-1.7,0-2.6,0
				c2.5,4.7,3.8,9.4,4,14.8c0,1.6,2.7,2.1,2.9,0.4c2.8-20.6,9.2-40.3,19.2-58.5c-0.6,0.2-1.1,0.5-1.7,0.7c7.1,1.7,5.8,16.2,6,21.6
				c0.3,7.8,0.3,15.7,0,23.6c-0.5,16.1-1.8,32.2-2.9,48.3c-2.2,32.5-4.4,65-6.6,97.5c-0.1,1.9,2.9,1.9,3,0
				c2.4-35.8,4.9-71.6,7.3-107.5c1.2-17.7,2.5-35.4,2.4-53.1c-0.1-7.6,0-15.6-1.2-23.2c-0.7-4.4-2.4-9-7.2-10.1
				c-0.6-0.1-1.4,0.1-1.7,0.7c-10,18.4-16.6,38.4-19.5,59.2c1,0.1,2,0.3,2.9,0.4c-0.2-5.8-1.6-11.2-4.4-16.3c-0.6-1-2-0.9-2.6,0
				c-9.6,14.2-12.9,31.1-15.1,47.8c-2.7,20.2-3.3,40.7-2,61.1C1085.2,1065.9,1088.2,1065.9,1088,1063.9L1088,1063.9z"/>
		</g>
	</g>
	<g>
		<g>
			<path class="st0" d="M1129.7,1036.3c1.2-4.3,2.9-8.4,5.3-12.2c1.5-2.5,2.4-4.8,5.5-4.8c2.2-0.7,3.4,0.4,3.5,3.1
				c0.2,1.5,0.4,3,0.5,4.6c0.7,8.5,0.9,17.2,0.8,25.7c-0.3,18-2.3,35.9-6,53.6c-0.4,1.9,2.5,2.7,2.9,0.8c5-23.8,7-48.2,5.8-72.5
				c-0.3-5.2,0.9-19.4-7.6-19.4c-3.3,0-5.4,3.5-7,5.9c-3,4.4-5.1,9.3-6.5,14.3C1126.3,1037.3,1129.1,1038.1,1129.7,1036.3
				L1129.7,1036.3z"/>
		</g>
	</g>
	<g>
		<g>
			<path class="st0" d="M1085.6,412c16.9-21.3,46.4-30.8,72.7-24.4c14.8,3.6,25.5,13.2,38.1,21.2c12.6,8.1,26.3,10.5,41,7.4
				c32.2-7,59.1-37.8,93.7-33.5c15.2,1.9,28.2,11,41.6,17.7c12.7,6.4,25.6,10.2,39.9,8.2c18.7-2.6,35.2-12.3,53.1-17.7
				c16.3-4.9,35.6-6.9,49.8,4.4c1.5,1.2,3.6-0.9,2.1-2.1c-25.2-20-57.7-3-83.4,6.5c-17.3,6.4-34.4,9.1-51.9,2
				c-13.8-5.7-26-14.8-40.3-19.5c-33.9-11.1-61.8,14.8-91.3,26.7c-17.3,7-35.1,8.3-51.5-1.7c-12.5-7.7-23.1-17.5-37.5-21.7
				c-27.9-8-60.1,1.6-78.3,24.4C1082.2,411.4,1084.4,413.5,1085.6,412L1085.6,412z"/>
		</g>
	</g>
	<g>
		<g>
			<path class="st0" d="M1091.4,340.1c13.8-11.4,33.1-15,50.1-9.4c16.9,5.5,28,21.2,44.8,27.1c16.9,6,36,2.6,52.8-2.2
				c8.8-2.6,17.4-5.9,25.7-9.9c8.5-4.1,16.4-9.4,25.1-13.2c19.1-8.4,41.1-5,55.7,10.4c1.3,1.4,3.5-0.7,2.1-2.1
				c-11.2-11.8-27.8-17.8-44-15.6c-8.5,1.2-16.3,4.8-23.7,8.9c-9.5,5.1-18.7,10.4-28.8,14.2c-19,7.3-42.3,13.5-62.4,7.1
				c-18.3-5.8-29.9-23.1-48.6-28.3c-17.6-4.9-36.8-0.7-50.9,10.8C1087.8,339.2,1089.9,341.3,1091.4,340.1L1091.4,340.1z"/>
		</g>
	</g>
	<g>
		<g>
			<path class="st0" d="M138.3,448.8c0.9-14.8,14.4-24.1,27.8-26.9c16.5-3.5,32.4,3.6,46.4,11.8c14.5,8.5,28.1,18,43.8,24.1
				c15.6,6,32.5,9.4,49.3,8.1c15.6-1.2,29.8-6.8,42.7-15.5c13-8.7,24.6-19.4,38.7-26.5c37-18.6,71.4,7.8,103.8,23.3
				c15.4,7.4,32,12.7,49.2,10.3c14.4-2,28.1-9.1,35.3-22.2c0.9-1.7-1.7-3.2-2.6-1.5c-7.6,13.8-22.9,20.4-38.2,21.2
				c-17.8,0.9-34.5-6.3-49.9-14.4c-29.8-15.5-62.3-36.3-96.4-20.7c-14.3,6.5-26.1,17.2-38.8,26.1c-14.4,10.1-30.1,16.5-47.8,17.1
				c-18.4,0.6-36.7-4.2-53.3-12.1c-15.8-7.5-29.5-18.4-45.3-25.9c-14.1-6.7-29.4-9.8-44.4-4.2c-12.3,4.6-22.5,14.2-23.3,27.9
				C135.2,450.8,138.2,450.8,138.3,448.8L138.3,448.8z"/>
		</g>
	</g>
	<g>
		<g>
			<path class="st0" d="M343.8,390.6c11.6-14.1,27.8-26.7,46.6-28.3c17.3-1.4,31.2,8.7,44.3,18.5c12.2,9.1,25.1,18,41,18.1
				c19,0.1,35.8-10.2,50.4-21.3c15.8-12,36.2-32.6,58-24.4c1.8,0.7,2.6-2.2,0.8-2.9c-17.3-6.4-34.3,4.6-47.5,14.8
				c-16.9,13-34.4,28.4-56.6,30.5c-35.9,3.5-54.7-39.2-90.5-36.4c-19.6,1.6-36.6,14.4-48.7,29.1C340.4,390,342.6,392.1,343.8,390.6
				L343.8,390.6z"/>
		</g>
	</g>
	<g>
		<g>
			<path class="st0" d="M173.7,749.1c7.5-8,19.1-7.8,28.9-4.5c10.5,3.6,19.1,11.3,28.3,17.1c17.9,11.1,37.5,11.2,56.7,3.2
				c19.8-8.3,34.8-23.2,52-35.5c8.6-6.1,18-11.7,28.4-13.8c10.7-2.2,21.3-0.1,31.1,4.3c18.9,8.6,34.8,23.7,56.1,26.1
				c1.9,0.2,1.9-2.8,0-3c-20.6-2.3-36.4-17.3-54.6-25.7c-18.2-8.3-36.2-6.5-53.3,3.5c-19,11.2-34,28-53.7,38.1
				c-10.2,5.2-21.6,9-33.2,9c-12.7,0-23.3-5.4-33.5-12.4c-9.5-6.5-18.8-13.5-30.4-15.4c-9.1-1.5-18.5,0.1-24.9,7
				C170.3,748.3,172.4,750.5,173.7,749.1L173.7,749.1z"/>
		</g>
	</g>
	<g>
		<g>
			<path class="st0" d="M1093.3,709.5c5.5,7.6,14.8,10.1,23.8,8.7c12.7-2,22.3-11.6,32.1-19c21.3-16.2,48.9-26.5,73.6-11.4
				c17.8,10.9,31.3,29.6,52.2,35c24.2,6.2,46.7-8.8,66.5-20.5c13-7.7,26.3-14.3,41.1-17.7c16.1-3.7,32.8-3.8,48.9-0.6
				c1.9,0.4,2.7-2.5,0.8-2.9c-25.1-5-51.4-2.1-74.5,8.9c-22.3,10.5-43.3,30.1-68.9,31.2c-23.7,1.1-39.4-17.5-56.7-30.6
				c-8.4-6.3-17.6-11.6-28.2-13.1c-11.3-1.6-22.7,0.8-33.1,5.3c-13.8,5.9-24.5,15.5-36.6,24.2c-10.7,7.6-28.9,14.3-38.5,1
				C1094.8,706.4,1092.2,707.9,1093.3,709.5L1093.3,709.5z"/>
		</g>
	</g>
	<circle class="st1" cx="428.5" cy="272.8" r="12.4"/>
	<circle class="st1" cx="1097.3" cy="497.4" r="12.8"/>
	<circle class="st2" cx="494.3" cy="628.2" r="11.3"/>
	<circle class="st2" cx="515.4" cy="597.5" r="9.7"/>
	<circle class="st3" cx="329.8" cy="820.5" r="4"/>
	<circle class="st3" cx="369.2" cy="827.5" r="7"/>
	<circle class="st4" cx="1082.2" cy="118.2" r="8.1"/>
	<circle class="st4" cx="281.8" cy="503.8" r="6.4"/>
	<circle class="st4" cx="1256.3" cy="861.9" r="7"/>
	<circle class="st4" cx="1259.8" cy="481.9" r="3.5"/>
	<g>
		<g>
			<path class="st4" d="M1204.2,224.7c0.9-1.5,2.3-4,4.1-4.7c5.5-2.3,3.9,0.9,5.7,2.5c1.3,1.1,2.1,2.1,4,2.3c5.2,0.5,8.2-4.8,12.2-7
				c5.1-2.7,6.2,6.4,11.2,7.1c3.8,0.6,7.5-1.8,10.4-4c4.2-3.2,8.3-6.3,12.7-0.9c1,1.3,2.1,2.9,3.7,3.5c3.8,1.3,4-2.4,5.3-4.6
				c4.4-7.5,16.9,13,22.5,2.3c0.9-1.7-1.7-3.2-2.6-1.5c-3.6,6.7-17.3-13.5-22.5-2.8c-0.6,1.2-0.5,3.5-2.5,3.1
				c-0.8-0.1-1.9-2.3-2.3-2.9c-1.3-1.5-2.6-2.9-4.6-3.4c-4.9-1-9,3-12.6,5.6c-1.4,1-2.9,1.9-4.6,2.3c-3.9,0.8-4.1-0.5-5.7-3.7
				c-0.8-1.6-1.2-2.8-2.9-3.6c-3.5-1.7-7.5,0.9-10.1,3.2c-3.9,3.5-5.5,5.1-10.5,1c-1.3-1.1-1.9-2.2-3.9-2.4
				c-4.2-0.5-7.6,3.9-9.5,7.1C1200.6,224.9,1203.2,226.4,1204.2,224.7L1204.2,224.7z"/>
		</g>
	</g>
	<g>
		<g>
			<path class="st3" d="M211.4,920.8c0.3-2,2.3-3.8,4.4-3.7c1.7,0.1,2.9,2.1,3.8,3.3c0.8,1.2,1.4,2.6,2.7,3.4c2.9,1.6,4.9-0.8,6.6-3
				c1.5-1.9,3.2-5.2,5.6-6.3c4.6-2,6.1,2.8,8.4,5c2.1,2,5.7,3.4,8.1,1.1c1.4-1.3,1.4-3.4,2.7-4.7c2.3-2.4,6.7-2,8.6,0.6
				c1.8,2.4,2.1,6.4,5.9,6.7c3.6,0.3,4.7-3.6,6.4-5.9c6-8.3,14.4,1.8,17.7,7c1,1.6,3.6,0.1,2.6-1.5c-3.1-4.8-6.7-10.2-12.7-11.3
				c-4.8-0.8-8.3,1.2-10.8,5.3c-1,1.7-1.7,4.5-5,1.4c-0.9-0.8-1.1-2.6-1.9-3.6c-1-1.3-2.2-2.2-3.8-2.8c-3.5-1.2-8-0.1-10.1,3.1
				c-0.4,0.6-0.6,1.8-1,2.3c-2.9,3.4-4.9-0.1-6.7-2.3c-1.4-1.7-2.8-3.3-5-3.8c-4.5-1-7.6,2.8-10.1,5.9c-0.5,0.7-1.1,1.5-1.6,2.2
				c-1.8,2.2-3.1,2.2-3.8,0.1c-0.7-0.8-1-2-1.7-2.9c-1.1-1.3-2.2-2-3.9-2.3c-3.9-0.7-7.7,1.9-8.3,5.8
				C208.2,921.9,211.1,922.7,211.4,920.8L211.4,920.8z"/>
		</g>
	</g>
	<g>
		<g>
			<path class="st3" d="M273.2,901.5c1.3-3.8,5.6-3.9,8.1-1.6c1,1,1.6,2.5,3,3.1c2.3,1.1,3.7,0.1,5.1-1.7c1.8-2.3,3-5.5,6.8-4.3
				c2.3,0.7,3.3,3.3,5.2,4.5c2.1,1.5,4.5,1.3,6.5-0.3c4-3.3,6.3-7.5,12.4-5.3c2.9,1.1,4.5,5.3,7.8,5.3c3.2,0,4-3.5,5.6-5.5
				c3.3-3.9,10.5-2.7,12.3,2.1c0.7,1.8,3.6,1,2.9-0.8c-2.5-6.5-11.6-9-16.8-4.1c-1.8,1.7-2.4,5.6-5.7,4c-1.8-0.9-2.8-2.9-4.8-3.7
				c-4-1.6-8.7-1-12,1.7c-0.8,0.6-1.3,1.6-2,2.1c-2,1.6-3.9,1.8-6,0.4c-1.7-1.2-2.4-2.7-4.5-3.3c-4.3-1.2-6.8,1.2-9.4,4
				c-3.1,3.3-2.8,0.4-5.2-1.5c-1.1-0.9-2.6-1.4-4-1.4c-3.7-0.2-6.8,2-8,5.5C269.7,902.5,272.6,903.3,273.2,901.5L273.2,901.5z"/>
		</g>
	</g>
	<g>
		<g>
			<path class="st4" d="M225.9,659.6c-0.1-4.9,7.6,1.2,8.7,2.1c1.2,0.9,2.5,1.8,4.1,2.1c3.1,0.5,5.6-1.2,7.8-3.3
				c1.2-1.1,2.5-3.2,4-3.9c3.7-1.9,4.4,1.1,6.1,3.5c1.5,2.1,3.7,3.2,6.3,2.5c2.8-0.8,4.9-3.3,7.1-5.1c0.6-0.5,1.4-1.5,2.2-1.6
				c3.2-0.5,2.9,2.1,3.6,3.7c0.5,1,1,2,2.1,2.6c3.5,2.1,6.3-1.8,8.7-3.7c5.1-4.2,12.8-2.7,15.9,3.1c0.9,1.7,3.5,0.2,2.6-1.5
				c-2.2-4-6.2-6.6-10.8-6.9c-2.1-0.2-4.3,0.1-6.2,0.9c-2.2,0.9-3.8,3.7-5.8,4.4c-5,1.8-4.5-6.4-9.5-5.9c-3.8,0.3-6.2,4.5-9.2,6.2
				c-5.4,3.1-5.4-6-10.6-6.3c-3.6-0.2-6,3.4-8.3,5.5c-0.8,0.8-1.7,1.8-2.8,2.3c-3.3,1.5-5.6-1.2-8-3.1c-1.5-1.1-2.8-2-4.7-2.2
				c-3.2-0.3-6.5,1.1-6.4,4.7C223,661.5,226,661.5,225.9,659.6L225.9,659.6z"/>
		</g>
	</g>
	<g>
		<g>
			<path class="st4" d="M1118.9,757.2c0.9-1.4,3.9-0.7,5.1-0.1c1.1,0.5,2,1.3,3.1,1.8c1.1,0.5,2.1,0.9,3.3,1
				c2.5,0.1,4.1-1.2,5.5-3.2c1.4-2,2.2-4.5,5-3.6c1.4,0.4,2.5,1.9,3.7,2.8c2,1.4,4.1,2.2,6.5,1.4c2.6-0.9,4-3.3,6.2-4.8
				c5-3.5,5.8,2,9.8,3.6c2.8,1.1,5.5-0.3,8-1.7c5.5-3.1,11.2-4,16.3,0.5c1.4,1.3,3.6-0.8,2.1-2.1c-2.8-2.4-6.1-4-9.8-4.2
				c-4.8-0.2-7.2,2.4-11.4,3.9c-6.5,2.4-6.5-4.5-11.8-4.7c-3-0.1-5.2,2.5-7.2,4.3c-2.4,2.2-4.6,2.8-7.4,0.9
				c-1.3-0.9-2.3-2.1-3.8-2.8c-2.5-1.1-4.6-0.5-6.5,1.4c-2.1,2.2-1.3,3.4-5,3.9c-3.4,0.5-4.2-1.1-7.1-2c-2.8-0.9-5.5-0.5-7.2,2.1
				C1115.2,757.3,1117.8,758.8,1118.9,757.2L1118.9,757.2z"/>
		</g>
	</g>
</g>
<g id="phone">
	<polygon class="st5" points="621.8,121 629.6,1074.7 1036.3,1116.8 1036.3,110.1 	"/>
	<path class="st5" d="M629.1,1017.1c0.2,19.2,0.3,38.4,0.5,57.6l406.7,42.1c0.5-20.4,0.9-40.7,1.4-61.1
		C901.5,1042.9,765.3,1030,629.1,1017.1z"/>
	<circle class="st5" cx="816.4" cy="1063.6" r="16.4"/>
</g>
<g id="hand_right">
	<path class="st6" d="M771.8,333.2c-5.3,1.7-7.1,6.8-14,22.7c-9.1,21-2.9,5.3-10.2,23.1c-3.4,8.4-8,19.7-13.2,33.3
		c-6.3,11.5-13.8,25.8-22,42.4c-2.4,4.8-9.7,19.7-19.6,41.1c-9,19.7-20.4,45.6-32.9,76.6c-2.8,2-6.8,5.3-10.4,10.3
		c-3.1,4.3-2.7,5.5-7,13.7c-5.8,11-8.4,12.7-8,17.7c0.1,0.8,0.7,7.7,5.7,9.6c4.2,1.6,8.5-1.4,9-1.8c1.7,0.5,3.4,1.1,5.1,1.6
		c1.2-0.2,2.9-0.5,5-0.7c1.8-0.2,4.7-0.5,8.3-0.5c4.6,0,5.3,0.4,7.5-0.2c1.6-0.5,3.8-1.1,4.9-3c0.9-1.7,0-2.9-0.6-8.2
		c-0.2-2.2-0.5-4.2-0.3-6.8c0.3-3.6,1.1-4.4,1.6-7.8c0.2-1.8,0.4-4.4-0.3-7.8c6-9,14.3-21.7,24-37.1c12.4-19.7,21.1-33.5,31.7-52.4
		c8-14.3,18.3-32.6,29.3-57.9c6.4-14.5,2.8-7.9,14.2-35.9c0,0,11.3-27.5,13.4-50.3c0.2-2.6,0.5-7.6-2-12.7c-0.6-1.3-1.8-3.6-4.2-5.6
		C782.8,333,776.5,331.6,771.8,333.2z"/>
	<path class="st6" d="M550,722.7c-0.2,5.2-0.6,13.4-1.9,23.2c-4.3,31.8-14.3,56.1-21.5,73.3c-2.5,6-6.2,14.4-11.3,24.4
		c1.9,0.9,4.8,2.5,7.6,5.3c2.1,2.1,3.4,4.2,4.3,5.9c3.8,0.1,8,0,12.5-0.4c7.4-0.6,14-1.8,19.7-3.2c3.3,4.6,6.6,9.2,9.9,13.9
		c2.3,3.1,4.5,6.3,6.8,9.4c8.4,0.1,20.3,0,34.5-1.1c12.3-0.9,22.1-1.7,33.3-4.2c10.5-2.4,26.2-7.2,44-17.8
		c-0.1-3.4-0.2-8.1-0.2-13.7c0-4.3,0.1-19.1,2-39.6c1.3-13.8,3.6-31.8,7.9-53.2c-4.9-2.8-9.7-5.5-14.6-8.3c0.3-0.5,3.9-5.4,2.5-7.3
		c-1.2-1.6-5.8-0.8-11.3,2.5c-2.2-1.2-4.4-2.5-6.7-3.7c-1.1-3.4-2.1-6.8-3.2-10.2c-4.2,0.5-10.4,1.2-18,2
		c-15.6,1.7-23.5,2.6-26.1,2.8c-11.9,0.7-21.5,0-34.3-0.9c-7.8-0.5-14.6-1.3-24.8-0.5C556.5,721.7,552.6,722.3,550,722.7z"/>
	<g>
		<g>
			<path class="st7" d="M770.1,332.7c-18.8,25.9-27,57.1-40.1,85.9c-7.1,15.7-16.6,30.2-24.4,45.5c-8.2,16-14.9,32.7-21.9,49.2
				c-8.3,19.5-16.7,38.9-25,58.4c-0.8,1.8,1.8,3.3,2.6,1.5c14.4-33.6,27.9-67.8,43.6-100.8c7.5-15.8,17.1-30.5,24.8-46.2
				c6.8-13.9,12.1-28.4,17.8-42.8c6.8-17.2,14.3-34.2,25.2-49.2C773.8,332.7,771.2,331.2,770.1,332.7L770.1,332.7z"/>
		</g>
	</g>
	<g>
		<g>
			<path class="st7" d="M772.2,334.6c10.4-4.3,18.6,6.3,19.4,15.6c0.8,9.8-2.8,20.1-5.4,29.4c-5.1,18.2-11.5,36-18.9,53.3
				c-14.8,35-33.5,68.2-53.5,100.5c-11.3,18.3-23.1,36.2-34.9,54.1c-1.1,1.6,1.5,3.1,2.6,1.5c45.5-68.8,92.2-141.1,111.2-222.5
				c2.2-9.3,3.9-20.5-2.4-28.7c-4.4-5.7-11.9-9.1-18.9-6.3C769.7,332.5,770.4,335.4,772.2,334.6L772.2,334.6z"/>
		</g>
	</g>
	<g>
		<g>
			<path class="st7" d="M655.8,588.8c3.1,3.9,0,7.9,1.9,12c0.7,1.5,2.8,3.3,3.1,4.9c-1.8,4.6-3.8,5.6-6.1,3
				c-0.6-0.6-1.2-1.2-1.8-1.8c-1.3-1.4-3.5,0.7-2.1,2.1c2.3,2.4,5.1,5,8.7,4.6c2.5-0.2,4.7-1.9,5.1-4.4c0.8-4.9-4.4-8.1-4.4-12.9
				c0-4,0.6-6.2-2.1-9.6C656.7,585.2,654.6,587.3,655.8,588.8L655.8,588.8z"/>
		</g>
	</g>
	<g>
		<g>
			<path class="st7" d="M659.1,571.7c-4.5,0.8-7.3,4.1-9.6,7.9c-4,6.7-7.2,14-10.8,20.9c-2.4,4.7-6.5,10.3-5.6,15.9
				c0.7,4.4,3.8,7.5,7.8,8.9c1.8,0.6,2.6-2.3,0.8-2.9c-12.3-4.3-0.3-20.5,3.2-27.4c3.2-6.2,7.1-18.9,14.9-20.4
				C661.8,574.3,661,571.4,659.1,571.7L659.1,571.7z"/>
		</g>
	</g>
	<g>
		<g>
			<path class="st7" d="M678.9,589.8c2.8,4.9-1.3,10-1.2,15.1c0.1,4.9,5,11.1,0.6,15.2c-1.4,1.3,0.7,3.4,2.1,2.1
				c4.5-4.2,2-9.3,0.8-14.4c-1.6-6.8,4-13.1,0.3-19.6C680.5,586.6,677.9,588.1,678.9,589.8L678.9,589.8z"/>
		</g>
	</g>
	<g>
		<g>
			<path class="st7" d="M639.9,625.1c7.5,1.7,12.9-3.9,16.7-9.7c1.1-1.6-1.5-3.1-2.6-1.5c-3,4.5-7.2,9.7-13.3,8.3
				C638.8,621.8,638,624.7,639.9,625.1L639.9,625.1z"/>
		</g>
	</g>
	<g>
		<g>
			<path class="st7" d="M644.5,616.8c2.5-3.2,6.9-4.1,10.4-1.9c1.7,1,3.2-1.6,1.5-2.6c-4.5-2.8-10.7-1.8-14,2.4
				C641.2,616.2,643.3,618.3,644.5,616.8L644.5,616.8z"/>
		</g>
	</g>
	<g>
		<g>
			<path class="st7" d="M648.2,622.9c6.9,5.6,13.9-1.1,18-6.6c1.2-1.5-1.4-3-2.6-1.5c-2.8,3.7-8.1,10.1-13.2,6
				C648.8,619.6,646.7,621.7,648.2,622.9L648.2,622.9z"/>
		</g>
	</g>
	<g>
		<g>
			<path class="st7" d="M660.8,613.1c1.1-0.4,2.5,0.3,2.5,1.6c0,1.9,3,1.9,3,0c0-3.1-3.4-5.7-6.3-4.5c-0.8,0.3-1.3,1-1,1.8
				C659.2,612.7,660,613.4,660.8,613.1L660.8,613.1z"/>
		</g>
	</g>
	<g>
		<g>
			<path class="st7" d="M658.6,624.1c6,2.6,12.8-0.5,14.1-7.1c0.4-1.9-2.5-2.7-2.9-0.8c-0.9,4.5-5.3,7.2-9.7,5.3
				C658.3,620.8,656.8,623.3,658.6,624.1L658.6,624.1z"/>
		</g>
	</g>
	<g>
		<g>
			<path class="st7" d="M666.4,614.8c1.1-1,3-0.1,3.2,1.3c0.3,1.9,3.2,1.1,2.9-0.8c-0.7-3.7-5.6-5-8.3-2.6
				C662.9,613.9,665,616,666.4,614.8L666.4,614.8z"/>
		</g>
	</g>
	<g>
		<g>
			<path class="st7" d="M668.1,623.3c3.6,2.6,9.2,1.2,11.1-2.8c0.8-1.7-1.8-3.3-2.6-1.5c-1.3,2.6-4.6,3.5-7,1.8
				C668,619.5,666.5,622.1,668.1,623.3L668.1,623.3z"/>
		</g>
	</g>
	<g>
		<g>
			<path class="st7" d="M672.3,617.9c0.8-1.5,1.6-3.3,3.1-4.2c1.3-0.8,3-0.7,3.7,0.8c1.5,3.1-1.9,5.3-4.4,6.1
				c-1.8,0.5-1.1,3.4,0.8,2.9c4.6-1.3,9.1-6,6-10.9c-1.2-2-3.5-2.8-5.8-2.2c-3,0.8-4.6,3.5-6,6C668.9,618.1,671.4,619.6,672.3,617.9
				L672.3,617.9z"/>
		</g>
	</g>
	<g>
		<g>
			<path class="st7" d="M649.5,609.2c-19.1,9.9-27.2,32-35.8,50.3c-11.8,24.9-23.5,49.9-35.3,74.8c-0.8,1.7,1.8,3.3,2.6,1.5
				c11.2-23.7,22.4-47.5,33.6-71.2c8.8-18.7,16.9-42.7,36.4-52.8C652.7,610.9,651.2,608.3,649.5,609.2L649.5,609.2z"/>
		</g>
	</g>
	<g>
		<g>
			<path class="st7" d="M678.1,622.1c2,36.1,3.9,72.3,5.9,108.4c0.1,1.9,3.1,1.9,3,0c-2-36.1-3.9-72.3-5.9-108.4
				C681,620.2,678,620.2,678.1,622.1L678.1,622.1z"/>
		</g>
	</g>
	<g>
		<g>
			<path class="st7" d="M578.7,737c2.7,3.5,4.5,7.4,5.5,11.7c0.2,0.9,1.4,1.4,2.2,0.9c3.4-2.2,6.9-4.5,10.3-6.7
				c1.6-1.1,0.1-3.7-1.5-2.6c-3.4,2.2-6.9,4.5-10.3,6.7c0.7,0.3,1.5,0.6,2.2,0.9c-1.1-4.8-3.2-9.1-6.2-13
				C579.7,733.3,577.5,735.5,578.7,737L578.7,737z"/>
		</g>
	</g>
	<g>
		<g>
			<path class="st7" d="M596.7,743.7c32,12.2,66.9,8.2,99.6,1.1c1.9-0.4,1.1-3.3-0.8-2.9c-32.2,7-66.5,11-98-1.1
				C595.7,740.1,594.9,743,596.7,743.7L596.7,743.7z"/>
		</g>
	</g>
	<g>
		<g>
			<path class="st7" d="M579.2,737c34.3,5.6,69.4,4,103.1-4.9c1.9-0.5,1.1-3.4-0.8-2.9c-33.1,8.8-67.7,10.5-101.5,4.9
				C578.1,733.8,577.3,736.7,579.2,737L579.2,737z"/>
		</g>
	</g>
	<g>
		<g>
			<path class="st7" d="M684.2,730.6c-0.9,1.7-1.8,3.5-2.7,5.2c-0.4,0.8-0.1,2,0.9,2.2c5.1,0.8,9.7,2.7,13.9,5.8
				c1.6,1.1,3.1-1.5,1.5-2.6c-4.3-3.2-9.3-5.3-14.6-6.1c0.3,0.7,0.6,1.5,0.9,2.2c0.9-1.7,1.8-3.5,2.7-5.2
				C687.7,730.4,685.1,728.9,684.2,730.6L684.2,730.6z"/>
		</g>
	</g>
	<g>
		<g>
			<path class="st7" d="M578.5,737.3c-0.9,39.2-8.1,78-21.2,115c-0.6,1.8,2.3,2.6,2.9,0.8c13.2-37.2,20.4-76.3,21.3-115.8
				C581.6,735.4,578.6,735.4,578.5,737.3L578.5,737.3z"/>
		</g>
	</g>
	<g>
		<g>
			<path class="st7" d="M594.4,748.1c-1.6,42.3-8.3,84.3-19.8,125c-0.5,1.9,2.4,2.7,2.9,0.8c11.6-41,18.3-83.2,19.9-125.8
				C597.4,746.2,594.4,746.2,594.4,748.1L594.4,748.1z"/>
		</g>
	</g>
	<g>
		<g>
			<path class="st7" d="M557.4,853.9c6.4,6.6,12.2,13.7,17.4,21.3c1.1,1.6,3.7,0.1,2.6-1.5c-5.3-7.8-11.2-15.1-17.8-21.9
				C558.1,850.4,556,852.6,557.4,853.9L557.4,853.9z"/>
		</g>
	</g>
	<g>
		<g>
			<path class="st7" d="M577.5,875.8c38-0.4,78.3-1.4,111.1-23.1c1.6-1.1,0.1-3.7-1.5-2.6c-32.4,21.4-72,22.3-109.5,22.7
				C575.5,872.8,575.5,875.8,577.5,875.8L577.5,875.8z"/>
		</g>
	</g>
	<g>
		<g>
			<path class="st7" d="M696,744.5c-7,34.5-10.3,69.5-10,104.7c0,1.9,3,1.9,3,0c-0.4-34.9,2.9-69.7,9.8-103.9
				C699.3,743.4,696.4,742.6,696,744.5L696,744.5z"/>
		</g>
	</g>
	<g>
		<g>
			<path class="st7" d="M677.2,620c6.3,41.5,12.7,82.9,19,124.4c0.3,1.9,3.2,1.1,2.9-0.8c-6.3-41.5-12.7-82.9-19-124.4
				C679.8,617.3,676.9,618.1,677.2,620L677.2,620z"/>
		</g>
	</g>
	<g>
		<g>
			<path class="st7" d="M640.4,617.7c-18.8,39-33.5,79.9-44.1,121.9c-0.5,1.9,2.4,2.7,2.9,0.8c10.5-41.8,25.1-82.4,43.8-121.2
				C643.9,617.5,641.3,616,640.4,617.7L640.4,617.7z"/>
		</g>
	</g>
	<g>
		<g>
			<path class="st7" d="M635.4,616.1c-29.5,33.6-58,68.1-85.5,103.4c-1.2,1.5,0.9,3.6,2.1,2.1c27.5-35.3,56-69.7,85.5-103.4
				C638.8,616.8,636.7,614.7,635.4,616.1L635.4,616.1z"/>
		</g>
	</g>
	<g>
		<g>
			<path class="st7" d="M550.1,722.6c5.3,1.8,10.6,3.1,16.1,3.9c-0.2-0.8-0.4-1.7-0.7-2.5c-3.1,3.5-6.2,6.9-9.2,10.4
				c-1.3,1.4,0.8,3.6,2.1,2.1c3.1-3.5,6.2-6.9,9.2-10.4c0.7-0.8,0.5-2.3-0.7-2.5c-5.5-0.9-10.8-2.2-16.1-3.9
				C549.1,719.1,548.3,722,550.1,722.6L550.1,722.6z"/>
		</g>
	</g>
	<g>
		<g>
			<path class="st7" d="M558.2,736.5c5.9,0.7,11.8,1.5,17.7,2.2c1.9,0.2,1.9-2.8,0-3c-5.9-0.7-11.8-1.5-17.7-2.2
				C556.3,733.2,556.3,736.2,558.2,736.5L558.2,736.5z"/>
		</g>
	</g>
	<g>
		<g>
			<path class="st7" d="M550.4,721.8c-5.3,41.5-17.2,81.9-35.3,119.7c-0.8,1.7,1.8,3.3,2.6,1.5c18.3-38.2,30.4-79.1,35.7-121.2
				C553.6,719.9,550.6,719.9,550.4,721.8L550.4,721.8z"/>
		</g>
	</g>
	<g>
		<g>
			<path class="st7" d="M555.9,737.1c-1,11.2-3.5,22.1-7.4,32.6c-0.7,1.8,2.2,2.6,2.9,0.8c4-10.8,6.5-22,7.5-33.4
				C559,735.2,556,735.2,555.9,737.1L555.9,737.1z"/>
		</g>
	</g>
	<g>
		<g>
			<path class="st7" d="M516.1,845.9c4,2.2,6.5,4.8,9.1,8.4c1.6,2.3,1.6,2.1,4.9,2.1c8.1,0,16.1-0.9,24-2.6c1.9-0.4,1.1-3.3-0.8-2.9
				c-4.2,0.9-8.5,1.6-12.8,2c-3.2,0.3-8.4,1.5-11.4,0.5c-2.2-0.8-3.5-3.9-5.2-5.5c-1.9-1.8-4-3.3-6.3-4.5
				C515.9,842.3,514.4,844.9,516.1,845.9L516.1,845.9z"/>
		</g>
	</g>
	<g>
		<g>
			<path class="st7" d="M553.7,723.2c9.5-0.6,19.1-0.7,28.6-0.1c9.1,0.5,18.2,1.9,27.4,2.2c18.3,0.7,36.9-3.5,54.9-5.9
				c1.9-0.3,1.1-3.2-0.8-2.9c-18.5,2.5-37.4,6.7-56.1,5.7c-18.1-0.9-35.8-3.1-54-2C551.8,720.4,551.8,723.4,553.7,723.2L553.7,723.2
				z"/>
		</g>
	</g>
	<g>
		<g>
			<path class="st7" d="M662.8,717.9c-0.2,1.5-2.1,2.7-2.8,4c-0.7,1.2-0.7,2.7,0,3.8c0.9,1.4,2.8,2,4.3,2.6c2.7,1.1,5.4,2.2,8.2,3.2
				c1.8,0.7,2.6-2.2,0.8-2.9c-1.9-0.7-3.8-1.4-5.6-2.1c-1-0.4-5.3-1.4-5.1-3.1c0.1-0.8,1.5-1.8,2-2.5c0.7-1,1.1-1.8,1.2-3
				C666,716,663,716,662.8,717.9L662.8,717.9z"/>
		</g>
	</g>
	<g>
		<g>
			<path class="st7" d="M663.2,719.3c1.2,2.6,2.4,5.2,3.6,7.8c0.8,1.8,3.4,0.2,2.6-1.5c-1.2-2.6-2.4-5.2-3.6-7.8
				C665,716,662.4,717.6,663.2,719.3L663.2,719.3z"/>
		</g>
	</g>
	<g>
		<g>
			<path class="st7" d="M672.5,622.3c-2.9,16.4-6.1,32.8-8.5,49.3c-1.1,7.4-1.8,14.8-1.7,22.2c0.2,8.3,1.6,16.4-0.9,24.5
				c-0.6,1.8,2.3,2.6,2.9,0.8c2.2-7.1,1.5-14.3,1.1-21.6c-0.4-8.4,0.2-16.8,1.4-25.1c2.4-16.5,5.6-32.9,8.5-49.3
				C675.7,621.2,672.8,620.4,672.5,622.3L672.5,622.3z"/>
		</g>
	</g>
	<g>
		<g>
			<path class="st7" d="M673.3,624.6c2.6,35.1-3.6,70.1-0.7,105.1c0.2,1.9,3.2,1.9,3,0c-2.9-35,3.3-70.1,0.7-105.1
				C676.2,622.7,673.2,622.7,673.3,624.6L673.3,624.6z"/>
		</g>
	</g>
</g>
<g id="leg_right">
	<path class="st7" d="M727,1058.9c-0.2,5.1-0.4,10.2-0.6,15.3c-13.6,7.5-24.9,14.5-33.9,20.5c-7.1,4.7-17.2,11.4-29.9,21.5
		c-7.4,5.9-13.4,11.2-17.9,15.2c1.5,1.3,3.9,3.1,7.1,3.9c6.4,1.6,12.1-1.5,14-2.5c9.7-4.9,3.5,1.7,39.5-12.2
		c13.4-5.2,32-13,54.4-24.1c-0.5-5.7-1-11.3-1.5-17c-0.9-9.9-1.8-19.8-2.6-29.7C746,1052.9,736.5,1055.9,727,1058.9z"/>
	<path class="st6" d="M771.9,545.8c-1.9,9.4-4.6,23.1-7.8,39.7c-20,104.1-37,193.1-46.6,289.7c-4.4,44.3-8.8,105.3-8.6,178.9
		c4.1,1.4,10.3,3.3,18.1,4.8c10.8,2.1,20.7,4,32.6,1.5c4.3-0.9,10.8-2.8,18.3-7.2c3.6-52.3,8.2-96.8,12.4-131.3
		c5.5-45.6,11.9-97.8,25.9-165.1c8.9-42.6,17.3-74.3,21-87.8c7.9-29,15.8-54.3,22.6-75.1c10.3-18.5,13.9-39.9,4.9-53.3
		C851.3,521.1,808.8,516,771.9,545.8z"/>
	<g>
		<g>
			<path class="st7" d="M770.5,545.4C757.6,611.2,744.7,677,734,743.1c-10.6,65.5-19.2,131.4-23.6,197.6c-2.5,37.7-3.6,75.5-3,113.4
				c0,1.9,3,1.9,3,0c-1.1-66.5,3.2-133,10.8-199c7.7-66.4,18.7-132.4,30.8-198.1c6.8-37,14.1-73.9,21.3-110.8
				C773.7,544.3,770.8,543.5,770.5,545.4L770.5,545.4z"/>
		</g>
	</g>
	<g>
		<g>
			<path class="st7" d="M838.2,661c-16.9,48-24.3,98.7-32.5,148.7c-8.4,51.5-16.6,103.1-22.3,154.9c-3.3,29.4-5.7,59-7.1,88.6
				c-0.1,1.9,2.9,1.9,3,0c2.4-52.5,8.4-104.8,15.9-156.8c7.3-50.8,15.1-101.7,24.6-152.2c5.3-27.9,11.8-55.7,21.2-82.5
				C841.7,660,838.8,659.2,838.2,661L838.2,661z"/>
		</g>
	</g>
	<g>
		<g>
			<path class="st7" d="M710.5,1056c11.4,4.1,23.6,5.6,35.6,6.7c11.9,1.1,21.8-3.1,32.2-8.4c1.7-0.9,0.2-3.5-1.5-2.6
				c-10.7,5.5-20.4,9.1-32.6,7.8c-11.2-1.2-22.3-2.6-32.9-6.4C709.5,1052.4,708.7,1055.3,710.5,1056L710.5,1056z"/>
		</g>
	</g>
	<g>
		<g>
			<path class="st7" d="M725.5,1058.9c0,4.5,1.7,12.6-1.9,16c-3.1,2.8-8.5,4.6-12.2,6.6c-8.2,4.6-16.3,9.6-24.1,14.9
				c-15.3,10.3-29.8,21.7-43.5,34c-0.5,0.4-0.6,1.3-0.2,1.8c3.8,6,11.4,5,17.5,3.5c11.5-2.8,22.9-6.2,34.1-9.9
				c21.8-7.2,43-15.9,63.5-26c1.7-0.9,0.2-3.4-1.5-2.6c-18.1,8.9-36.7,16.7-55.7,23.3c-9.1,3.2-18.4,6.1-27.7,8.7
				c-4.8,1.4-9.6,2.7-14.5,3.8c-4.3,1-10.3,2.1-13.2-2.3c-0.1,0.6-0.2,1.2-0.2,1.8c15.5-14,32-26.7,49.6-37.9
				c8.5-5.4,17.1-10.5,26-15.2c2.8-1.5,6-2.7,6.9-6.1c1.2-4.4,0.2-10,0.2-14.4C728.5,1057,725.5,1057,725.5,1058.9L725.5,1058.9z"/>
		</g>
	</g>
	<g>
		<g>
			<path class="st7" d="M755.2,1063.6c1,11,2,22,3,33c0.2,1.9,3.2,1.9,3,0c-1-11-2-22-3-33C758,1061.7,755,1061.6,755.2,1063.6
				L755.2,1063.6z"/>
		</g>
	</g>
</g>
<g id="leg_left">
	<path class="st7" d="M1002.4,1012.6c3.3,4.7,6.6,9.4,9.9,14c-6.6,9.7-13.3,20.4-19.9,32.1c-8.6,15.2-15.6,29.8-21.4,43.2
		c1.1,1,2.8,2.1,5,2.4c6.1,0.7,11.1-6.2,15.6-11.8c13.3-16.6,12.9-10.7,28.5-30.2c4.4-5.5,9.9-12.9,15.9-22
		c-0.6-13.5-1.3-27.1-1.9-40.6c-2.5,2.6-6.8,6.4-13.2,9.2C1013.1,1012.4,1006.2,1012.7,1002.4,1012.6z"/>
	<path class="st6" d="M816.5,547.4c-7.9,8.8-12.1,21.4-12.3,21.9c-7.7,23.7,0.7,44.4,3.5,50.5c5.5,0.6,13.8,2.5,19.8,8.9
		c5.1,5.4,6,11.4,8.4,21.1c2.7,10.8,7.1,21,9.9,31.8c2.2,8.5,9.7,31.9,24.6,78.6c0,0,15.4,48.4,31.1,91.3
		c14.2,38.9,36.8,94.6,72.4,163.5c5.5,1.3,12.9,2.3,21.5,1.3c22.3-2.6,36.4-16.9,41-21.9c-0.3-17.6-0.6-35.3-0.9-52.9
		c-3.7-9.3-9-22.6-15.1-38.5c-14.9-38.8-36.6-95.5-59.2-168.4c-14-45.3-22.8-74-31.2-115.5c-6.3-31.2-10-57.6-12.2-76.6
		C875.9,524.9,834.9,527,816.5,547.4z"/>
	<g>
		<g>
			<path class="st7" d="M807.3,621.3c6.3,1.3,13.4,2.7,18.1,7.5c5.2,5.3,6.7,14,8.8,20.9c4.2,13.4,8.4,26.8,12.5,40.3
				c8.3,26.9,16.7,53.8,25.3,80.6c17.3,53.5,36,106.7,58.5,158.2c12.7,29,26.6,57.5,42.1,85.1c0.9,1.7,3.5,0.2,2.6-1.5
				c-57.2-101.8-91.8-213.9-126.2-324.9c-4.9-15.8-9.7-31.5-14.7-47.3c-1.9-5.9-4-11.5-9.1-15.4c-5-3.7-11.3-5.1-17.3-6.4
				C806.2,618,805.4,620.9,807.3,621.3L807.3,621.3z"/>
		</g>
	</g>
	<g>
		<g>
			<path class="st7" d="M914.8,548.2c9.7,53.6,20.8,106.6,36.4,158.9c15.2,51.1,32.3,101.6,50.8,151.5
				c10.3,27.9,21.1,55.7,32.1,83.4c0.7,1.8,3.6,1,2.9-0.8c-19.5-48.9-38.1-98.2-55.1-148.1c-17.4-51.1-34.1-102.8-46.3-155.4
				c-6.9-29.9-12.5-60.1-17.9-90.3C917.3,545.5,914.4,546.3,914.8,548.2L914.8,548.2z"/>
		</g>
	</g>
	<g>
		<g>
			<path class="st7" d="M973.5,1016.6c21.8,5.6,43.6-3,61.3-15.5c1.6-1.1,0.1-3.7-1.5-2.6c-17.1,12.1-38,20.7-59,15.2
				C972.4,1013.2,971.6,1016.1,973.5,1016.6L973.5,1016.6z"/>
		</g>
	</g>
	<g>
		<g>
			<path class="st7" d="M1003.4,1016.9c2.6,3.5,5.1,7,7.7,10.5c1.1,1.5,3.7,0,2.6-1.5c-2.6-3.5-5.1-7-7.7-10.5
				C1004.8,1013.8,1002.2,1015.3,1003.4,1016.9L1003.4,1016.9z"/>
		</g>
	</g>
	<g>
		<g>
			<path class="st7" d="M1012.1,1027.5c-10.8,13.6-20,28.3-28.3,43.6c-4.2,7.8-8.2,15.7-12.2,23.6c-2,4-4.1,8.5,1.5,10.7
				c5.9,2.3,10.8-3.7,14.7-7.2c6.5-5.8,12.7-11.8,18.7-18.1c11.5-12,21.9-25,30.8-39c1-1.6-1.6-3.1-2.6-1.5
				c-7.6,11.9-16.2,23-25.7,33.4c-4.4,4.9-9.1,9.6-13.8,14.2c-2.5,2.4-5.1,4.8-7.6,7.2c-2.7,2.4-5.6,5.8-8.8,7.4
				c-2.8,1.4-5.9,1.5-6.2-2.6c-0.1-1.1,1.8-3.4,2.3-4.5c1.6-3.2,3.2-6.3,4.8-9.5c3.2-6.3,6.5-12.5,10-18.7
				c7.3-12.8,15.3-25.2,24.4-36.8C1015.4,1028.1,1013.3,1026,1012.1,1027.5L1012.1,1027.5z"/>
		</g>
	</g>
</g>
<g id="torso">
	<path class="st3" d="M793.7,311.7c-11,6.6-18.4,14.6-23,20.3c-8.9,31.1-10,56.1-9.4,73c1,28.5,7,42.3,10,77.1
		c2.4,27.7,1.2,50.3,0,64.7c10.8,4.4,23.4,8.5,37.7,11.2c47.3,9,87.3-1.8,109.8-10c-5.8-29.9-7.4-54.2-7.8-70.5
		c-1.1-40.7,4.1-62.5-0.2-108.4c-2.6-28.1-4.1-42.3-12.4-51.8C876.2,291.7,826.2,292,793.7,311.7z"/>
</g>
<g id="hand_left">
	<path class="st6" d="M888.6,323.7c-4.9,6.5-5,14.2-4.8,19.9c0.5,17.2,3,28.4,3,28.4c7.2,32.2,4.3,25.4,8.6,41.8
		c10.4,39.6,29.4,86.6,34.3,98.6c18.6,46,33.3,81.6,42.5,104c-2,3.4-4.6,8.5-6.9,14.8c-3.2,9.1-4.8,13.8-2.6,17.7
		c3.2,5.5,11.8,5.8,14,5.9c2.1,3,4.1,6,6.2,9c0.6,0.5,3.6,2.7,7.9,2.2c5.1-0.6,7.7-4.7,8-5.2c3-2.1,6-4.3,9-6.4
		c1.7-1.1,3.6-2.4,5.6-4c2.6-2.1,4.7-4.3,6.3-6.2c1-2,2.3-5.3,2-9.4c-0.2-3-1.2-6.9-6.3-12.9c-7.1-8.4-15.9-13.5-22.7-16.6
		c-12.6-36.1-21-65.9-26.3-86.5c-28.1-108.4-30.8-121.1-30.8-121.1c-9.6-43.9-4.7-13.5-13.9-41.8c-3.7-11.3-7.3-22.8-18.1-30.5
		c-4.2-3-8.3-4.7-11.2-5.6C891.2,320.8,889.9,322,888.6,323.7z"/>
	<path class="st6" d="M996.2,718.7c-16.5,12.2-36.5,25-60.3,36.3c-9.7,4.6-19.2,8.6-28.2,12c-2.3,10.7-4.8,22.6-7,33.2
		c-9.5,44.9-19.2,89.8-28.9,134.7c3.9,2.8,8.6,5.7,14.1,8.1c20.3,8.8,39.6,6.5,49.3,4.5c5.1,1.4,11.9,2.7,20,2.8
		c5.7,0,10.6-0.6,14.7-1.4c6.6-2.8,13.6-6.2,20.8-10.3c19.7-11.3,34.4-24.5,45-35.8c0.1-52.4,0.2-104.7,0.4-157.1
		c-2.1-1.3-4.1-2.7-6.2-4c-0.7-1.3-1.7-3.3-2.8-5.7c-1.7-3.7-2-4.9-2.9-5.1c-2.4-0.4-4.5,7.2-6.6,6.9c-1.1-0.1-2.4-2.5-3.2-13.2
		C1008.4,722.7,1002.3,720.7,996.2,718.7z"/>
	<g>
		<g>
			<path class="st7" d="M891.8,321.4c9.2,1.4,14.8,9,19.1,16.6c4.9,8.5,9,17.6,12.6,26.7c7.2,18.3,11.5,37.5,16,56.6
				c9.4,39.6,19.7,78.9,30.9,118c6.4,22.2,13,44.3,19.9,66.4c0.6,1.8,3.5,1.1,2.9-0.8c-12.9-41-24.8-82.2-35.7-123.8
				c-5.5-20.8-10.7-41.6-15.6-62.5c-4.7-20-9.4-39.9-17.3-58.9c-3.8-9.2-8-18.6-13.5-27c-4.4-6.8-10.2-12.9-18.6-14.2
				C890.7,318.2,889.9,321.1,891.8,321.4L891.8,321.4z"/>
		</g>
	</g>
	<g>
		<g>
			<path class="st7" d="M890.5,319.8c-13,10.7-7.9,32.8-6,47c2.7,20.3,7.2,40.4,12.8,60c11.8,41.3,28.6,81,45.2,120.6
				c9.5,22.6,18.9,45.2,27.4,68.1c0.7,1.8,3.6,1,2.9-0.8C944.5,538.2,905.1,465,890.2,384c-2.1-11.6-3.7-23.2-4.7-34.9
				c-0.8-9.5-1-20.6,7-27.1C894.1,320.7,891.9,318.6,890.5,319.8L890.5,319.8z"/>
		</g>
	</g>
	<g>
		<g>
			<path class="st7" d="M970.8,615.7c-2.5,5.4-5,10.9-7.5,16.3c-1.8,3.8-3.8,7.9-3.7,12.2c0.3,8.8,9.9,10.1,16.6,12.1
				c1.9,0.5,2.7-2.4,0.8-2.9c-3-0.9-6.2-1.6-9.2-2.7c-5.6-2.2-5.9-7.1-4.2-12.1c2.5-7.3,6.5-14.4,9.7-21.4
				C974.2,615.5,971.6,614,970.8,615.7L970.8,615.7z"/>
		</g>
	</g>
	<g>
		<g>
			<path class="st7" d="M992.9,606.6c10.6,7.8,30.2,17.8,26.8,33.8c-0.4,1.9,2.5,2.7,2.9,0.8c3.7-17.8-16.2-28.4-28.2-37.2
				C992.9,602.8,991.4,605.4,992.9,606.6L992.9,606.6z"/>
		</g>
	</g>
	<g>
		<g>
			<path class="st7" d="M974.9,646.5c2.4,0.4,4.9,0.9,7.3,1.3c1.9,0.3,2.7-2.6,0.8-2.9c-2.4-0.4-4.9-0.9-7.3-1.3
				C973.8,643.3,973,646.2,974.9,646.5L974.9,646.5z"/>
		</g>
	</g>
	<g>
		<g>
			<path class="st7" d="M979.3,647.2c0.9,5.3,3.6,10,7.7,13.6c1.5,1.3,3.6-0.9,2.1-2.1c-3.7-3.2-6.1-7.4-6.9-12.2
				C981.9,644.5,979,645.3,979.3,647.2L979.3,647.2z"/>
		</g>
	</g>
	<g>
		<g>
			<path class="st7" d="M984.6,666.6c10.8,5.5,20-10.5,15.2-19.4c-0.9-1.7-3.5-0.2-2.6,1.5c3.3,6.2-3.2,19.3-11.1,15.3
				C984.4,663.2,982.9,665.8,984.6,666.6L984.6,666.6z"/>
		</g>
	</g>
	<g>
		<g>
			<path class="st7" d="M999,662.3c7.9-1.5,12.4-9.5,9.5-17.1c-0.7-1.8-3.6-1-2.9,0.8c2.4,6.1-0.9,12.2-7.4,13.4
				C996.4,659.8,997.2,662.6,999,662.3L999,662.3z"/>
		</g>
	</g>
	<g>
		<g>
			<path class="st7" d="M1007.6,655.9c2.6,0.1,4.8-1.3,6.2-3.4c1.8-2.8,1.6-6.3,1.3-9.5c-0.2-1.9-3.2-1.9-3,0
				c0.3,3.4,0.7,10.1-4.5,9.9C1005.7,652.8,1005.7,655.8,1007.6,655.9L1007.6,655.9z"/>
		</g>
	</g>
	<g>
		<g>
			<path class="st7" d="M1015.3,650.2c3.9-2.1,6.6-5.9,7.4-10.3c0.3-1.9-2.6-2.7-2.9-0.8c-0.6,3.7-2.7,6.7-6,8.5
				C1012.1,648.5,1013.6,651.1,1015.3,650.2L1015.3,650.2z"/>
		</g>
	</g>
	<g>
		<g>
			<path class="st7" d="M985,656.3c-27.2,32.9-44.6,72.9-50.1,115.2c-0.3,1.9,2.8,1.9,3,0c5.4-41.4,22.6-80.9,49.3-113.1
				C988.4,657,986.2,654.8,985,656.3L985,656.3z"/>
		</g>
	</g>
	<g>
		<g>
			<path class="st7" d="M982.7,654.6c-32,31.4-57.7,68.8-75.5,110c-0.8,1.8,1.8,3.3,2.6,1.5c17.7-40.9,43.2-78.1,75-109.4
				C986.2,655.4,984,653.2,982.7,654.6L982.7,654.6z"/>
		</g>
	</g>
	<g>
		<g>
			<path class="st7" d="M906.5,766.7c3.2,2.7,7.2,7.8,11.7,8.2c2.1,0.2,4.1-0.6,6-1.2c3.6-1.1,7.2-2.3,10.8-3.4
				c1.8-0.6,1.1-3.5-0.8-2.9c-4,1.3-8.5,3.3-12.6,3.9c-5.7,0.9-9-3.3-13-6.8C907.2,763.3,905,765.5,906.5,766.7L906.5,766.7z"/>
		</g>
	</g>
	<g>
		<g>
			<path class="st7" d="M906.2,766.6c-11.8,55.7-23.6,111.4-35.4,167.1c-0.4,1.9,2.5,2.7,2.9,0.8c11.8-55.7,23.6-111.4,35.4-167.1
				C909.5,765.5,906.6,764.7,906.2,766.6L906.2,766.6z"/>
		</g>
	</g>
	<g>
		<g>
			<path class="st7" d="M870.7,936c8.5,7.3,19.2,10.1,29.8,12.7c11.8,2.9,23.3,3.4,35.1,0.2c1.9-0.5,1.1-3.4-0.8-2.9
				c-11.3,3.1-22.2,2.6-33.5-0.2c-10.1-2.5-20.4-5-28.5-12C871.3,932.6,869.2,934.7,870.7,936L870.7,936z"/>
		</g>
	</g>
	<g>
		<g>
			<path class="st7" d="M934.3,771.6c-3.3,58.1-3.6,116.3-0.9,174.5c0.1,1.9,3.1,1.9,3,0c-2.7-58.1-2.3-116.4,0.9-174.5
				C937.5,769.7,934.5,769.7,934.3,771.6L934.3,771.6z"/>
		</g>
	</g>
	<g>
		<g>
			<path class="st7" d="M981.4,663.5c-12.3,38.5-24.5,76.9-36.8,115.4c-0.6,1.8,2.3,2.6,2.9,0.8c12.3-38.5,24.5-76.9,36.8-115.4
				C984.8,662.4,981.9,661.6,981.4,663.5L981.4,663.5z"/>
		</g>
	</g>
	<g>
		<g>
			<path class="st7" d="M943.7,782.3c2,2.5,4.9,8.5,8.6,8.5c1.8,0,3.8-1.3,5.3-2c3.1-1.4,6.2-2.8,9.3-4.3c1.8-0.8,0.2-3.4-1.5-2.6
				c-3.3,1.5-7.3,4.2-10.8,5c-3.4,0.8-3.5-0.1-5.1-2.2c-1.2-1.5-2.4-3-3.6-4.5C944.7,778.7,942.6,780.8,943.7,782.3L943.7,782.3z"/>
		</g>
	</g>
	<g>
		<g>
			<path class="st7" d="M943.1,782.7c-0.6,38.2-3.7,76.4-9.4,114.2c-0.3,1.9,2.6,2.7,2.9,0.8c5.7-38.1,8.9-76.5,9.5-115
				C946.2,780.8,943.2,780.8,943.1,782.7L943.1,782.7z"/>
		</g>
	</g>
	<g>
		<g>
			<path class="st7" d="M935.4,946.2c10.3,5.1,21.4,6.7,32.7,4.6c1.9-0.3,1.1-3.2-0.8-2.9c-10.4,1.9-20.9,0.4-30.4-4.3
				C935.2,942.8,933.7,945.4,935.4,946.2L935.4,946.2z"/>
		</g>
	</g>
	<g>
		<g>
			<path class="st7" d="M964.6,784.1c6.3,54.7,7.6,109.8,3.8,164.7c-0.1,1.9,2.9,1.9,3,0c3.8-54.9,2.5-110-3.8-164.7
				C967.4,782.2,964.4,782.2,964.6,784.1L964.6,784.1z"/>
		</g>
	</g>
	<g>
		<g>
			<path class="st7" d="M948.6,784.7c27.6-14.5,53.2-32.2,76.6-52.8c1.5-1.3-0.7-3.4-2.1-2.1c-23.2,20.4-48.7,37.9-76,52.3
				C945.4,783,946.9,785.6,948.6,784.7L948.6,784.7z"/>
		</g>
	</g>
	<g>
		<g>
			<path class="st7" d="M965.9,785.4c25.2-6.8,48.2-20,67-38.2c1.4-1.3-0.7-3.5-2.1-2.1c-18.4,17.9-40.9,30.7-65.6,37.4
				C963.2,783,964,785.9,965.9,785.4L965.9,785.4z"/>
		</g>
	</g>
	<g>
		<g>
			<path class="st7" d="M1009.9,653.8c3.6,25.5,7.2,51.1,10.9,76.6c0.3,1.9,3.2,1.1,2.9-0.8c-3.6-25.5-7.2-51.1-10.9-76.6
				C1012.5,651.1,1009.6,651.9,1009.9,653.8L1009.9,653.8z"/>
		</g>
	</g>
	<g>
		<g>
			<path class="st7" d="M1014,653c6.6,30.7,12.5,61.5,17.8,92.5c0.3,1.9,3.2,1.1,2.9-0.8c-5.3-31-11.3-61.8-17.8-92.5
				C1016.5,650.4,1013.6,651.2,1014,653L1014,653z"/>
		</g>
	</g>
	<g>
		<g>
			<path class="st7" d="M970.6,952.2c24.4-12.6,45.4-30.5,66.1-48.4c1.5-1.3-0.7-3.4-2.1-2.1c-20.5,17.7-41.3,35.4-65.5,48
				C967.4,950.5,968.9,953.1,970.6,952.2L970.6,952.2z"/>
		</g>
	</g>
	<g>
		<g>
			<path class="st7" d="M1023.5,732.9c2.1,5.6,4.9,11.8,11.2,13.6c1.9,0.5,2.7-2.4,0.8-2.9c-5.1-1.5-7.3-6.9-9.1-11.5
				C1025.7,730.3,1022.8,731.1,1023.5,732.9L1023.5,732.9z"/>
		</g>
	</g>
	<g>
		<g>
			<path class="st7" d="M935.1,772.7c30.5-8.2,58.3-24.4,80.4-47c1.3-1.4-0.8-3.5-2.1-2.1c-21.7,22.3-49,38.2-79.1,46.3
				C932.4,770.4,933.2,773.2,935.1,772.7L935.1,772.7z"/>
		</g>
	</g>
	<g>
		<g>
			<path class="st7" d="M1013.1,725.5c0.5,4.1,1.4,8.1,2.6,12c0.6,1.8,3.5,1.1,2.9-0.8c-1.2-3.7-2-7.4-2.5-11.2
				C1015.9,723.6,1012.9,723.6,1013.1,725.5L1013.1,725.5z"/>
		</g>
	</g>
	<g>
		<g>
			<path class="st7" d="M908.1,767.5c7.8-1.1,15.1-5,22.2-8.3c7.9-3.7,15.7-7.6,23.3-11.8c15-8.2,29.4-17.4,43.3-27.5
				c1.5-1.1,0.1-3.7-1.5-2.6c-13.4,9.7-27.3,18.6-41.7,26.6c-7.1,3.9-14.3,7.6-21.6,11.1c-7.8,3.7-16.1,8.3-24.7,9.5
				C905.4,764.9,906.3,767.8,908.1,767.5L908.1,767.5z"/>
		</g>
	</g>
	<g>
		<g>
			<path class="st7" d="M995.2,719.2c5.2,3.6,10.9,5.7,17.2,6.4c1.9,0.2,1.9-2.8,0-3c-5.7-0.7-10.9-2.8-15.6-6
				C995.1,715.5,993.6,718.1,995.2,719.2L995.2,719.2z"/>
		</g>
	</g>
	<g>
		<g>
			<path class="st7" d="M996.9,717.6c3.7-18.4,2.8-37.3,2.8-55.9c0-1.9-3-1.9-3,0c0,18.3,0.9,37-2.7,55.1
				C993.6,718.7,996.5,719.5,996.9,717.6L996.9,717.6z"/>
		</g>
	</g>
	<g>
		<g>
			<path class="st7" d="M1003.2,661.6c2.2,11,1,22.2,2.3,33.2c1.2,10.5,4.5,20.5,7.7,30.5c0.6,1.8,3.5,1,2.9-0.8
				c-3.6-10.9-7.1-21.9-7.9-33.3c-0.7-10.2,0-20.3-2.1-30.4C1005.7,658.9,1002.9,659.7,1003.2,661.6L1003.2,661.6z"/>
		</g>
	</g>
	<g>
		<g>
			<path class="st7" d="M1034.6,745.6c-2.9,52.5-2.4,105.2,1.4,157.7c0.1,1.9,3.1,1.9,3,0c-3.8-52.5-4.2-105.2-1.4-157.7
				C1037.7,743.7,1034.7,743.7,1034.6,745.6L1034.6,745.6z"/>
		</g>
	</g>
</g>
<g id="head">
	<path class="st6" d="M818.3,175.8c-16.6-0.5-28.7,10.7-34.1,15.7c-22.1,20.5-22.9,50-23.2,59.9c-0.3,10.1-1.2,48.3,19.9,58.2
		c12.7,5.9,28-0.8,42-6.8c7.5-3.2,18.9-9.4,29.9-20.5c8.4-8.6,18.6-19,21.5-35.8c0.7-4.2,2.7-18.6-5-33.6
		c-4.4-8.7-10.1-13.7-15.9-18.7C843.8,185.7,832.9,176.2,818.3,175.8z"/>
	<path class="st4" d="M822.7,179.8c-7.4-0.5-13,1.9-18.8,4.3c-11,4.7-17.3,12.1-21.6,17.1c-9.2,10.8-12.8,21.3-13.7,24.3
		c-2,6.2-5.5,17.6-2.5,31.5c1.5,6.7,5.1,23.4,20.1,30.7c12,5.8,24.1,2.2,27.8,1c2.2,2,5.6,5.7,7.5,11.1c0,0,3.6,10.3-1.5,22
		c-7.5,17.2-36.1,28.8-56.6,20.3c-26.2-10.9-28.3-50.5-24.8-71.3c1.9-11.5,6.1-20.6,9.7-26.8c-0.5-10.3,0.3-29.5,12.7-46.5
		c19.8-27.2,60.8-37,69.8-27c2.3,2.5,3.9,7.4,2.2,9.4C831.6,181.7,827.8,180.2,822.7,179.8z"/>
	<path class="st4" d="M823.6,175.9c-3.7,4.7-4,10.2-4.1,14.5c-0.7,16.7,10.1,35,20.4,34.7c1.8-0.1,4.7-0.7,8.2-4.3
		c1-0.3,6.4-1.8,11.3,1.3c5.3,3.3,6.6,9.9,5.8,14.6c-0.8,4.8-3.9,7.7-4.9,8.6c-4.9,4.5-11,4.5-12.3,4.4c-1.1,4.7-3.5,12-8.7,19.5
		c-3.9,5.5-8.1,9.4-11.3,12c-0.9,3.5-1.9,8.6-2.4,14.7c-0.9,11.9-1.9,26,6,36.1c8.4,10.7,24,13.1,34.5,11.7
		c23.7-3.1,39.2-27.1,43.9-46.3c7.9-32.5-13.4-58.3-15.9-61.3c1.8-28.8-8.3-53.8-27-63.1C854.4,167,832.5,164.8,823.6,175.9z"/>
	<g>
		<g>
			<path class="st7" d="M800.7,185.1c-23.3,10-36.3,39.7-36.6,64c-0.2,13.3,5.4,26.9,15.5,35.8c10.2,9,24,9.7,36.4,4.9
				c13-5,23.3-15.2,28.9-27.8c0.8-1.7-1.8-3.3-2.6-1.5c-5.9,13.4-17.5,24.1-31.7,28c-8.5,2.3-17.7,1.9-25.2-2.9
				c-7.2-4.6-12.5-12.3-15.4-20.2c-5.7-15.5-1.6-33.2,4.9-47.9c5.6-12.7,14.4-24,27.4-29.6C803.9,186.9,802.4,184.3,800.7,185.1
				L800.7,185.1z"/>
		</g>
	</g>
	<g>
		<g>
			<path class="st7" d="M789.8,205.5c-6.4,13.3-11.8,27-16.4,41.1c-0.4,1.2,1.1,2.5,2.2,1.7c4.9-3.7,9.9-7.5,14.8-11.2
				c1.5-1.2,0-3.8-1.5-2.6c-4.9,3.7-9.9,7.5-14.8,11.2c0.7,0.6,1.5,1.1,2.2,1.7c4.5-13.8,9.8-27.3,16.1-40.4
				C793.2,205.3,790.6,203.8,789.8,205.5L789.8,205.5z"/>
		</g>
	</g>
	<g>
		<g>
			<path class="st7" d="M782.7,253c2.5,5.1,8.8,5.9,13.7,4.3c6.1-1.9,10.1-7.2,11.4-13.3c0.4-1.9-2.5-2.7-2.9-0.8
				c-0.9,4.3-3.1,8.1-7.1,10.3c-3.9,2.1-10.3,2.6-12.6-2C784.5,249.8,781.9,251.3,782.7,253L782.7,253z"/>
		</g>
	</g>
	<g>
		<g>
			<path class="st7" d="M804.9,204.8c-1.3,5.1,2,10.8,7.4,11.5c5.5,0.8,10.3-4.3,10.1-9.6c-0.1-1.9-3.1-1.9-3,0
				c0.2,3.7-3.1,7.4-7,6.6c-3.4-0.7-5.4-4.5-4.6-7.7C808.3,203.8,805.4,203,804.9,204.8L804.9,204.8z"/>
		</g>
	</g>
	<g>
		<g>
			<path class="st7" d="M774.5,212.2c-1.2,3.3,2,6.4,5.3,6.1c4.4-0.4,6.2-4.8,7.2-8.5c0.5-1.9-2.4-2.7-2.9-0.8
				c-0.5,2-1.1,4.3-2.9,5.5c-1.4,1-4.7,0.9-3.8-1.6C778,211.2,775.1,210.4,774.5,212.2L774.5,212.2z"/>
		</g>
	</g>
	<g>
		<g>
			<path class="st7" d="M813.2,225.5c0.1,0,0.3,0,0.4,0c0.8,0,1.5-0.7,1.5-1.5c0-0.8-0.7-1.5-1.5-1.5c-0.1,0-0.3,0-0.4,0
				c-0.8,0-1.5,0.7-1.5,1.5C811.7,224.8,812.3,225.5,813.2,225.5L813.2,225.5z"/>
		</g>
	</g>
	<g>
		<g>
			<path class="st7" d="M825.3,220.8c1.9,0,1.9-3,0-3C823.4,217.8,823.4,220.8,825.3,220.8L825.3,220.8z"/>
		</g>
	</g>
	<g>
		<g>
			<path class="st7" d="M824.1,231c0.1,0,0.3,0,0.4,0c0.8,0,1.5-0.7,1.5-1.5c0-0.8-0.7-1.5-1.5-1.5c-0.1,0-0.3,0-0.4,0
				c-0.8,0-1.5,0.7-1.5,1.5C822.7,230.3,823.3,231,824.1,231L824.1,231z"/>
		</g>
	</g>
	<g>
		<g>
			<path class="st7" d="M813.1,190.3c3.6-2.9,8.6-1.2,10,3.1c0.6,1.8,3.5,1,2.9-0.8c-2.2-6.6-9.7-8.7-15-4.4
				C809.4,189.4,811.6,191.5,813.1,190.3L813.1,190.3z"/>
		</g>
	</g>
	<g>
		<g>
			<path class="st7" d="M784.2,194.1c2.1-4.2,7.8-3.5,8.7,1.2c0.4,1.9,3.3,1.1,2.9-0.8c-1.5-7.1-11-8.3-14.2-1.9
				C780.7,194.3,783.3,195.8,784.2,194.1L784.2,194.1z"/>
		</g>
	</g>
	<g>
		<g>
			<path class="st7" d="M846.5,223.8c11.5-11,25.6,14.4,10.3,21.9c-2.4,1.2-4.6,0.9-7.1,1.3c-0.8,0.1-1.7,0.2-2.4,0.7
				c-0.8,0.7-1.2,2.4-1.6,3.4c-1.1,3-2.2,5.9-3.2,8.9c-0.7,1.8,2.2,2.6,2.9,0.8c0.9-2.3,1.5-4.8,2.6-7.1c0.3-1.4,1-2.7,2.1-3.7
				c0.5,0,1,0,1.5,0c2.6-0.9,5.3-0.8,7.8-2.4c5-3.1,7.8-8.9,7.3-14.7c-1-10.6-13.3-20.1-22.4-11.3
				C843,223.1,845.1,225.2,846.5,223.8L846.5,223.8z"/>
		</g>
	</g>
	<g>
		<g>
			<path class="st7" d="M812.7,290.3c2.8,4.3,5.9,8.3,9.3,12.2c1.3,1.5,3.4-0.7,2.1-2.1c-3.2-3.7-6.1-7.6-8.8-11.6
				C814.2,287.2,811.6,288.7,812.7,290.3L812.7,290.3z"/>
		</g>
	</g>
</g>
</svg>
